Coordinates
version=1
nRows=30
nColumns=33
inDegrees=yes

Units are S.I. units (second, meters, Newtons, ...)
Angles are in degrees.

endheader
time	ground_thorax_rot_x	ground_thorax_rot_y	ground_thorax_rot_z	ground_thorax_tx	ground_thorax_ty	ground_thorax_tz	clav_prot_r	clav_elev_r	scapula_abduction_r	scapula_elevation_r	scapula_upward_rot_r	scapula_winging_r	shoulder_elv_r	plane_of_elev_r	axial_rot_r	elbow_flexion_r	pro_sup_r	wrist_flex_r	wrist_dev_r	clav_prot_l	clav_elev_l	scapula_abduction_l	scapula_elevation_l	scapula_upward_rot_l	scapula_winging_l	shoulder_elv_l	plane_of_elev_l	axial_rot_l	elbow_flexion_l	pro_sup_l	wrist_flex_l	wrist_dev_l	
5.3100	-21.968710	-36.516223	50.287133	-9.006600	827.625870	-46.635595	28.111404	-45.000000	41.914602	-45.000000	-45.000000	255.273527	3313.823980	21.413702	-151.672608	2877.900765	158.578455	12.663993	15.642729	-4.320757	38.887656	-34.980055	-45.000000	-18.572001	5141.608240	-3345.858189	142.675603	180.000000	2880.189883	-315.516276	14.519687	-24.731667	
5.3200	-21.579308	-36.819803	50.959650	-5.575686	826.347884	-46.498860	28.153374	-45.000000	41.930506	-45.000000	-45.000000	255.381318	3313.733048	21.359693	-151.480657	2877.957692	159.278537	12.647858	15.616950	-4.296158	38.871173	-34.908145	-45.000000	-18.595568	5141.621904	-3346.021477	142.633634	180.000000	2880.029105	-315.425815	14.605934	-24.580032	
5.3300	-21.231820	-37.097939	51.587644	-2.136045	825.050365	-46.363433	28.160777	-45.000000	41.915237	-45.000000	-45.000000	255.502143	3313.644975	21.293739	-151.277763	2878.007922	159.999206	12.646415	15.582241	-4.220832	38.861616	-34.859533	-45.000000	-18.628750	5141.651785	-3346.196142	142.572525	180.000000	2879.856231	-315.367737	14.684221	-24.390060	
5.3400	-20.859384	-37.384185	52.250324	1.307337	823.736279	-46.231550	28.198902	-45.000000	41.913460	-45.000000	-45.000000	255.594886	3313.556596	21.231317	-151.033184	2878.065144	160.729290	12.646945	15.544411	-4.174328	38.840057	-34.780561	-45.000000	-18.706613	5141.652844	-3346.363247	142.512057	180.000000	2879.676788	-315.346502	14.764156	-24.181255	
5.3500	-20.483124	-37.664881	52.918500	4.749355	822.408502	-46.104750	28.221219	-45.000000	41.920695	-45.000000	-45.000000	255.682068	3313.465651	21.158471	-150.771717	2878.128329	161.460453	12.642276	15.507259	-4.140929	38.815661	-34.686692	-45.000000	-18.799464	5141.615435	-3346.517707	142.477554	180.000000	2879.497223	-315.344316	14.836655	-23.964765	
5.3600	-20.050125	-37.967655	53.656129	8.184141	821.070137	-45.983829	28.291311	-45.000000	41.966204	-45.000000	-45.000000	255.724378	3313.372748	21.094970	-150.451141	2878.206805	162.176361	12.626895	15.471370	-4.172516	38.769438	-34.531594	-45.000000	-18.952477	5141.518758	-3346.648248	142.459419	180.000000	2879.322508	-315.364618	14.910811	-23.759512	
5.3700	-19.599382	-38.270385	54.415948	11.605644	819.724261	-45.868935	28.360716	-45.000000	42.030276	-45.000000	-45.000000	255.746342	3313.278482	21.023197	-150.086460	2878.281802	162.869753	12.605070	15.437676	-4.214878	38.712327	-34.353566	-45.000000	-19.155368	5141.389392	-3346.764043	142.446712	180.000000	2879.154061	-315.390322	14.974505	-23.557440	
5.3800	-19.127303	-38.574005	55.197930	15.007264	818.374162	-45.759815	28.435507	-45.000000	42.104985	-45.000000	-45.000000	255.753524	3313.192716	20.942300	-149.671623	2878.346662	163.534681	12.580681	15.400469	-4.249360	38.646004	-34.153461	-45.000000	-19.416849	5141.245856	-3346.875291	142.419581	180.000000	2878.989763	-315.416571	15.022529	-23.353816	
5.3900	-18.644389	-38.873562	55.988344	18.382143	817.023229	-45.656030	28.497197	-45.000000	42.189075	-45.000000	-45.000000	255.760049	3313.113942	20.841227	-149.225324	2878.400357	164.170040	12.551639	15.361166	-4.272129	38.575036	-33.943214	-45.000000	-19.715285	5141.086800	-3346.980876	142.394649	180.000000	2878.830087	-315.437411	15.049684	-23.140810	
5.4000	-18.172991	-39.156965	56.756304	21.723272	815.674906	-45.557068	28.547972	-45.000000	42.255016	-45.000000	-45.000000	255.774920	3313.047281	20.732771	-148.758430	2878.448085	164.780072	12.524476	15.312418	-4.263770	38.504145	-33.737671	-45.000000	-20.029071	5140.940340	-3347.094501	142.353446	180.000000	2878.669574	-315.456087	15.061219	-22.923721	
5.4100	-17.716739	-39.423455	57.499314	25.023661	814.332543	-45.462336	28.588628	-45.000000	42.306993	-45.000000	-45.000000	255.796138	3312.983337	20.616776	-148.284532	2878.493782	165.373014	12.497838	15.259190	-4.241051	38.434308	-33.540137	-45.000000	-20.344348	5140.797307	-3347.207660	142.311179	180.000000	2878.509118	-315.470074	15.061308	-22.705941	
5.4200	-17.279808	-39.667269	58.210750	28.276423	812.999278	-45.371061	28.625429	-45.000000	42.335512	-45.000000	-45.000000	255.822118	3312.924278	20.501170	-147.807178	2878.541107	165.954918	12.474673	15.198479	-4.199092	38.365249	-33.352493	-45.000000	-20.663078	5140.665796	-3347.327050	142.257026	180.000000	2878.351148	-315.482678	15.053822	-22.493758	
5.4300	-16.849077	-39.895433	58.912851	31.474762	811.677938	-45.282220	28.674469	-45.000000	42.350400	-45.000000	-45.000000	255.834397	3312.860317	20.394844	-147.320154	2878.599875	166.528612	12.452130	15.134783	-4.168731	38.291550	-33.162007	-45.000000	-20.993690	5140.524029	-3347.436311	142.200472	180.000000	2878.197216	-315.493700	15.048363	-22.298900	
5.4400	-16.429564	-40.101947	59.593483	34.612018	810.370945	-45.194525	28.725949	-45.000000	42.346798	-45.000000	-45.000000	255.841562	3312.799000	20.296632	-146.830505	2878.666942	167.096736	12.431575	15.064575	-4.135851	38.215263	-32.973666	-45.000000	-21.332316	5140.380246	-3347.543425	142.138059	180.000000	2878.050138	-315.501273	15.040968	-22.116243	
5.4500	-16.003992	-40.295339	60.276278	37.681784	809.080227	-45.106547	28.786577	-45.000000	42.338373	-45.000000	-45.000000	255.832840	3312.737999	20.205851	-146.326738	2878.742535	167.657520	12.409762	14.991175	-4.116795	38.132923	-32.775464	-45.000000	-21.693758	5140.217197	-3347.635824	142.076994	180.000000	2877.911462	-315.504770	15.033065	-21.946209	
5.4600	-15.565987	-40.474810	60.964667	40.678073	807.807191	-45.016890	28.847921	-45.000000	42.331056	-45.000000	-45.000000	255.812857	3312.683968	20.115094	-145.808855	2878.819213	168.204910	12.385011	14.914453	-4.102627	38.043909	-32.566224	-45.000000	-22.087870	5140.037146	-3347.719837	142.015962	180.000000	2877.786996	-315.505383	15.018833	-21.782139	
5.4700	-15.118708	-40.641854	61.664160	43.595400	806.552797	-44.924394	28.911606	-45.000000	42.305830	-45.000000	-45.000000	255.783959	3312.638009	20.025757	-145.276510	2878.905614	168.732045	12.356772	14.825553	-4.092869	37.944750	-32.344371	-45.000000	-22.508263	5139.838141	-3347.786525	141.951345	180.000000	2877.672516	-315.502547	14.997047	-21.615504	
5.4800	-14.663774	-40.791264	62.361636	46.429060	805.317644	-44.828201	28.975076	-45.000000	42.284198	-45.000000	-45.000000	255.738763	3312.594459	19.942912	-144.730782	2878.992975	169.235931	12.326035	14.739710	-4.088363	37.843864	-32.117178	-44.999999	-22.957060	5139.630060	-3347.847922	141.883001	180.000000	2877.571691	-315.499101	14.979125	-21.461570	
5.4900	-14.206829	-40.924703	63.055213	49.175347	804.102020	-44.727739	29.037358	-45.000000	42.252708	-45.000000	-45.000000	255.691178	3312.556798	19.857427	-144.176727	2879.083719	169.714469	12.292768	14.644939	-4.086439	37.734443	-31.883413	-44.999999	-23.420033	5139.409561	-3347.898911	141.814274	180.000000	2877.480349	-315.492255	14.954290	-21.300960	
5.5000	-13.755380	-41.035288	63.720877	51.831586	802.906013	-44.622514	29.097831	-45.000000	42.247597	-45.000000	-45.000000	255.619758	3312.507409	19.784711	-143.614272	2879.167699	170.169076	12.260130	14.573310	-4.093624	37.636362	-31.657038	-44.999998	-23.897509	5139.193445	-3347.956133	141.744130	180.000000	2877.399805	-315.486097	14.951294	-21.173516	
5.5100	-13.311535	-41.129217	64.360084	54.396125	801.729440	-44.512013	29.154551	-45.000000	42.248096	-45.000000	-45.000000	255.554446	3312.461334	19.706400	-143.052537	2879.246202	170.601025	12.227713	14.499995	-4.102888	37.533915	-31.430814	-44.999996	-24.366906	5138.975441	-3348.015781	141.682024	180.000000	2877.325553	-315.475070	14.943214	-21.040665	
5.5200	-12.880747	-41.199655	64.960891	56.868144	800.571781	-44.395617	29.208532	-45.000000	42.268306	-45.000000	-45.000000	255.473732	3312.409143	19.641394	-142.494269	2879.320291	171.010526	12.198777	14.442143	-4.119302	37.443311	-31.214600	-44.999994	-24.829883	5138.769861	-3348.088731	141.621588	180.000000	2877.260154	-315.463240	14.951305	-20.933722	
5.5300	-12.456443	-41.258653	65.544590	59.247408	799.432082	-44.272884	29.255790	-45.000000	42.279426	-45.000000	-45.000000	255.413298	3312.371573	19.560154	-141.941689	2879.393022	171.397346	12.168212	14.368776	-4.132870	37.338320	-30.994232	-44.999989	-25.275929	5138.560587	-3348.160825	141.572537	180.000000	2877.198716	-315.445053	14.936997	-20.799884	
5.5400	-12.045532	-41.297911	66.101695	61.533998	798.308927	-44.143713	29.303850	-45.000000	42.293364	-45.000000	-45.000000	255.334397	3312.328700	19.496617	-141.389173	2879.471600	171.758876	12.140689	14.303501	-4.154916	37.247049	-30.782609	-44.999980	-25.716541	5138.363935	-3348.238953	141.519427	180.000000	2877.141983	-315.427642	14.937561	-20.691777	
5.5500	-11.639711	-41.328390	66.647458	63.728088	797.200587	-44.008755	29.348766	-45.000000	42.293041	-45.000000	-45.000000	255.273165	3312.301661	19.421947	-140.835683	2879.551271	172.095252	12.110853	14.222811	-4.174225	37.145913	-30.565897	-44.999963	-26.141094	5138.165136	-3348.315831	141.474894	180.000000	2877.087308	-315.406090	14.917960	-20.563123	
5.5600	-11.245224	-41.341019	67.175906	65.830070	796.105187	-43.869432	29.395638	-45.000000	42.286081	-45.000000	-45.000000	255.195931	3312.275776	19.362835	-140.274979	2879.637823	172.402517	12.082241	14.144615	-4.200612	37.053678	-30.353212	-44.999934	-26.564262	5137.973648	-3348.395254	141.423979	180.000000	2877.038845	-315.386245	14.906515	-20.455383	
5.5700	-10.855486	-41.345432	67.698708	67.840592	795.021118	-43.727981	29.437697	-45.000000	42.272375	-45.000000	-45.000000	255.127976	3312.264173	19.291341	-139.696403	2879.719545	172.680974	12.048830	14.060511	-4.225504	36.948514	-30.134148	-44.999882	-26.984852	5137.774493	-3348.467546	141.378500	180.000000	2876.995248	-315.364752	14.878071	-20.335726	
5.5800	-10.478965	-41.333369	68.207340	69.760800	793.947285	-43.586956	29.481842	-45.000000	42.256042	-45.000000	-45.000000	255.038124	3312.251936	19.234417	-139.094971	2879.803999	172.925259	12.014786	13.984152	-4.259692	36.849180	-29.917884	-44.999789	-27.413698	5137.578559	-3348.535301	141.323546	180.000000	2876.959104	-315.346876	14.860335	-20.242157	
5.5900	-10.114021	-41.313186	68.704656	71.592406	792.883430	-43.448930	29.522381	-45.000000	42.235135	-45.000000	-45.000000	254.952230	3312.250699	19.169233	-138.467857	2879.883055	173.135592	11.975064	13.906232	-4.292567	36.739285	-29.698336	-44.999623	-27.840842	5137.377485	-3348.591353	141.271313	180.000000	2876.928156	-315.329954	14.832039	-20.144119	
5.6000	-9.764570	-41.281710	69.188949	73.337893	791.830209	-43.316052	29.562397	-45.000000	42.204264	-45.000000	-45.000000	254.860009	3312.255087	19.105797	-137.817976	2879.964500	173.305980	11.932666	13.825215	-4.329276	36.624437	-29.480706	-44.999324	-28.272847	5137.175214	-3348.636800	141.214260	180.000000	2876.902449	-315.317127	14.802069	-20.050261	
